Patient4_TMGait_0pt6_02_left_09_EMG.mot
version=1
nRows=16
nColumns=33
inDegrees=no
endheader
time	1LAddLong	2LGlutMax	3LGlutMed	4LIliopsoas	5LSemiMemb	6LBicFemLong	7LRecFem	8LVastMed	9LVastLat	10LGasMed	11LTibAnt	12lTibPost	13LPeroneusLong	14LSol	15LExtDigLong	16LFlexDigLong	17RAddLong	18RGlutMax	19RGlutMed	20RIliopsoas	21RSemiMemb	22RBicFemLong	23RRecFem	24RVastMed	25RVastLat	26RGasMed	27RTibAnt	28RTibPost	29RPeroneusLong	30RSol	31RExtDigLong	32RFlexDigLong
12.285	0.005646	-0.066833	-0.032806	0.003815	0.003357	0.037689	-0.016022	0.001373	0.036469	-0.028534	0.003204	0.011292	0.027924	0.011902	-0.002441	0.001526	0.008545	-0.19821	0.49027	-0.047607	-0.085907	-0.035858	-0.18814	0.12894	0.10162	0.00885	-0.42007	0.007629	0.052338	0.26276	-0.003357	0.001221
12.286	0.000458	-0.090179	-0.053406	0.004425	0.000763	0.035553	-0.016479	0.010986	0.03067	-0.032654	0.008545	-0.012665	0.011139	0.011444	-0.007935	-0.007019	0.025024	-0.10269	0.2861	0.005188	0.012817	-0.07431	-0.090942	0.1416	0.27145	0.002136	0.31387	0.006256	-0.13107	0.2681	-0.00351	-0.001526
12.287	0.002899	-0.13962	-0.062256	0.007477	-0.009155	0.049591	-0.015564	-0.003662	0.041504	-0.026703	0.009155	0.005798	0.025787	0.012817	-0.000153	0.000458	0.011139	-0.039063	0.12924	-0.018005	-0.086212	-0.043793	0.051727	0.12436	0.18997	-0.002289	0.4599	0.000916	-0.19745	0.36926	-0.004578	-0.00061
12.288	-0.001221	-0.11749	-0.07782	0.005035	-0.020142	0.032043	-0.012207	0.005188	0.035858	-0.026398	0.028076	0.000458	0.019684	-0.0177	-0.001984	-0.00473	-0.042419	-0.034027	0.1709	-0.017395	-0.063934	0.073242	-0.014648	0.18982	0.036011	-0.010681	0.13748	0.005341	-0.1622	-0.18356	-0.002594	-0.00885
12.289	-0.003204	-0.10254	-0.030518	0.001984	0.003052	0.036621	-0.025177	-0.002899	0.037079	-0.008698	0.01709	0	0.049744	-0.052795	-0.001526	0.001984	-0.028839	-0.068359	0.14297	0.007019	-0.1062	0.13382	0.006561	0.023193	-0.013275	0.00412	-0.33142	0.013733	0.034637	-0.48279	-0.00473	0.000763
12.29	0.008087	-0.097351	-0.014496	0.004425	0.021057	0.040283	-0.025024	-0.002289	0.035248	-0.021362	0.003357	-0.005341	0.041351	-0.10681	-0.008545	-0.014343	-0.004883	-0.092163	-0.17136	-0.032806	0.036011	0.074005	0.030365	-0.064087	-0.064697	0.010834	-0.42511	0.014954	0.041351	-0.57098	-0.00473	-0.010681
12.291	0.008392	-0.12283	-0.009308	0.012817	0.037689	0.048218	-0.015411	-0.001831	0.032196	-0.020599	0.002441	-0.00351	-0.026245	-0.083923	-0.007172	-0.009308	-0.009155	-0.083618	0.006104	-0.064545	0.11902	0.066376	0.014954	-0.032501	-0.14221	0.00061	-0.34103	0.010223	0.010834	-0.42496	0.000763	-0.007782
12.292	0.009918	-0.15854	-0.022125	0.011292	0.006866	0.028534	-0.025024	0.00946	0.02533	-0.034332	0.005035	0.004578	-0.02594	-0.037689	0.005951	-0.008392	-0.042419	-0.086975	-0.46616	-0.053711	0.059814	0.068665	-0.063477	-0.011597	-0.12268	-0.013885	-0.11627	0.011139	-0.095825	-0.22934	0.000153	-0.007324
12.293	0.002136	-0.18448	-0.029907	0.009308	0.014954	0.003967	-0.025635	-0.00061	0.035248	-0.029907	0.008698	0.005798	-0.005493	-0.080109	0.010376	-0.014801	-0.0354	-0.11551	-0.87494	-0.044708	0.063782	0.046539	-0.10284	0.002899	-0.067139	-0.019531	0.13016	0.027466	-0.27679	0.076447	-0.001831	-0.012054
12.294	-0.001068	-0.16068	-0.066681	0.003357	0.014801	0.017242	-0.016022	0.006256	0.03891	-0.027161	-0.001068	0.006104	-0.006104	-0.06134	0.007324	-0.001068	-0.005035	-0.13519	-0.76004	-0.0737	0.056152	0.053711	-0.13367	-0.055237	-0.026093	-0.011292	0.064697	0.024567	-0.15869	0.099335	-0.001068	-0.021362
12.295	0.002594	-0.16434	-0.08728	0.006561	0.015717	0.008087	-0.035248	0.005188	0.028839	-0.031128	-0.015564	-0.006866	0.000153	-0.045776	0.002594	-0.01709	0.01297	-0.1033	0.050507	-0.098114	0.089417	-0.010071	-0.08606	0.094604	0.10498	-0.002899	0.058746	0.000458	-0.069122	-0.34561	-0.000458	-0.010986
12.296	-0.002594	-0.16983	-0.066223	-0.011139	0.036621	0.014191	-0.032501	0.001068	0.031281	-0.031433	-0.023193	0.003815	-0.014496	-0.069122	-0.003357	-0.011749	0.005798	-0.053558	-0.006866	-0.0354	0.075378	-0.045013	0.004425	0.07309	0.11047	-0.00061	0.092621	-0.13168	0.036163	-0.3833	0	-0.013123
12.297	0.007477	-0.17075	-0.031891	-0.003967	0.032806	0.063629	-0.02533	-0.002899	0.032501	-0.025482	-0.01358	-0.000458	-0.014191	-0.041351	-0.022278	0.00061	-0.011139	-0.06546	0.010376	0.11887	-0.024109	-0.009613	-0.015259	0.006256	0.068207	0.010071	0.2298	0.01358	0.12253	0.15411	-0.001984	-0.009003
12.298	0.006256	-0.19913	-0.005951	-0.000458	0.007324	0.068665	-0.038147	-0.001984	0.028839	-0.034637	0.017853	-0.000458	-0.02655	0.001831	-0.022736	-0.01709	-0.01297	-0.18448	-0.21484	0.16205	-0.13657	0.034485	0.048676	0.039368	0.03952	-0.013428	0.30029	0.07431	0.02182	0.4303	-0.010376	-0.018921
12.299	0.007629	-0.19394	-0.036316	0.005646	-0.07019	0.046844	-0.041504	0.001831	0.015259	-0.022736	0.046387	0.012512	-0.026398	0.007629	-0.009308	-0.010376	-0.000153	-0.10284	-0.1767	0.069275	-0.022888	0.002899	0.017395	0.05127	0.029297	-0.024719	0.34515	0.074463	-0.17395	0.42618	-0.000916	-0.007629
12.3	-0.005341	-0.1593	-0.043945	0.004883	-0.074158	0.041962	-0.043182	0.000305	0.012817	-0.025482	0.039368	0.009613	-0.012512	0.00824	-0.013885	-0.007019	0.006714	-0.11551	-0.085907	-0.023651	0.018768	0.007324	0.038147	0.11063	0.009308	-0.022888	0.29938	0.03006	-0.2562	0.29098	-0.007019	-0.002289
